<?xml version="1.0" encoding="UTF-8"?>
<svg version="1.1" xmlns="http://www.w3.org/2000/svg" width="179" height="79">
<path d="M0 0 C3.0625 -0.4375 3.0625 -0.4375 6 0 C8 2 8 2 8.2890625 4.78759766 C7.970332 8.32970574 7.11485444 10.31744527 5.375 13.3984375 C4.56289062 14.85830078 4.56289062 14.85830078 3.734375 16.34765625 C2.87585937 17.84619141 2.87585937 17.84619141 2 19.375 C1.42765625 20.39722656 0.8553125 21.41945313 0.265625 22.47265625 C-1.14505535 24.98836954 -2.56711134 27.49689086 -4 30 C1.93631972 25.44812233 7.86575331 20.8881191 13.765625 16.2890625 C14.57080566 15.6614502 15.37598633 15.03383789 16.20556641 14.38720703 C17.80231534 13.14171064 19.39835931 11.89530986 20.99365234 10.64794922 C21.7305127 10.07318848 22.46737305 9.49842773 23.2265625 8.90625 C23.88221191 8.39384766 24.53786133 7.88144531 25.21337891 7.35351562 C29.66279694 3.98270754 29.66279694 3.98270754 32.4375 4.125 C35.62478806 5.21334226 37.01311577 6.27723273 39 9 C39.52635193 13.9477081 38.3449787 16.92915962 36 21.25 C33.78574513 24.93453775 33.78574513 24.93453775 33 29 C33.64324219 28.46632813 34.28648438 27.93265625 34.94921875 27.3828125 C42.17823996 21.42222155 49.50695087 15.62452928 57 10 C57.87398438 9.32839844 58.74796875 8.65679687 59.6484375 7.96484375 C60.81246094 7.11599609 60.81246094 7.11599609 62 6.25 C62.66 5.76015625 63.32 5.2703125 64 4.765625 C66 4 66 4 68.6328125 4.78125 C72.60147992 6.82452431 72.60147992 6.82452431 74 9 C73.73010929 14.75476635 71.06645016 18.71889224 68.0625 23.4375 C67.33184326 24.60925781 67.33184326 24.60925781 66.58642578 25.8046875 C62.48569817 32.34042902 58.22742429 38.76999343 53.8984375 45.15625 C52.04793165 47.80025043 52.04793165 47.80025043 51 50 C59.19774584 45.04549754 67.2911748 39.93109165 75.36257935 34.77368164 C77.04638183 33.69779887 78.73107256 32.62330665 80.41577148 31.54882812 C81.99080444 30.54045898 81.99080444 30.54045898 83.59765625 29.51171875 C84.54133057 28.90803467 85.48500488 28.30435059 86.45727539 27.68237305 C88.98825981 26.0541004 88.98825981 26.0541004 91.21264648 24.28051758 C93 23 93 23 95 23 C95.09410156 22.2471875 95.18820313 21.494375 95.28515625 20.71875 C96.71378668 15.28527034 101.86472568 12.26719551 106.5078125 9.51171875 C113.3187872 5.98125939 120.187735 2.98729898 128 4 C131 6 131 6 133 9 C133.60303994 13.53193649 132.43886288 16.38559197 129.8125 20.0625 C127 22 127 22 123.6875 21.8125 C122.800625 21.544375 121.91375 21.27625 121 21 C121.99 16.545 121.99 16.545 123 12 C114.15697695 14.59095716 114.15697695 14.59095716 107 20 C105.8031239 24.56989058 107.61607298 27.42181735 109.875 31.3125 C111.87407217 34.76489823 111.87407217 34.76489823 115 37 C117.79043905 35.75180361 120.43822342 34.44478144 123.125 33 C123.8974707 32.59080322 124.66994141 32.18160645 125.46582031 31.76000977 C130.35383802 29.09931879 134.53246709 26.3111214 138.359375 22.21484375 C140.60698973 20.55053856 142.27635608 20.78229377 145 21 C146.26113998 25.42158715 146.26113998 25.42158715 145.1640625 27.8515625 C140.26451991 33.49722833 134.39473052 37.22691733 128.04345703 41.05517578 C121.19327825 45.23892439 118.10394725 49.44128356 114.8125 56.8125 C111.03206178 64.77827471 106.16941115 69.48261968 98.6875 74 C93.409264 75.43138603 88.4223145 75.83834366 83 75 C79.51757609 72.47353559 78.34773178 71.04319535 77 67 C76.45969887 61.27280804 77.3483647 58.44117806 81 54 C85.05311737 50.35666471 89.44962246 48.09669694 94.3125 45.75 C95.42334961 45.20472656 95.42334961 45.20472656 96.55664062 44.6484375 C98.36839254 43.76009463 100.18382953 42.87927407 102 42 C100.68753462 38.55905814 99.33411133 35.86459118 97 33 C92.96300531 34.81003792 89.4303088 37.36015489 85.8125 39.875 C85.11632568 40.35606201 84.42015137 40.83712402 83.70288086 41.33276367 C77.73975735 45.46282075 71.8188136 49.65213117 65.89941406 53.84448242 C49.55714355 65.40145777 49.55714355 65.40145777 43 65 C40 63 40 63 39.2421875 60.7265625 C38.30064665 50.12663487 44.61139533 38.75648259 50 30 C44.29808516 34.03198807 39.35066649 38.42461658 34.5 43.4375 C30.01741693 47.99982265 25.54584422 52.46548513 20.6328125 56.5703125 C18.89423137 58.09261081 17.37353196 59.73526916 15.8125 61.4375 C13 64 13 64 10.375 64.6875 C8 64 8 64 5.625 62 C3.47332043 58.02766849 3.8065673 55.21141588 5 51 C6.91479487 46.88952543 9.18355487 43.02016888 11.5 39.125 C12.10714844 38.08085938 12.71429688 37.03671875 13.33984375 35.9609375 C14.45662258 34.04077434 15.57906507 32.12388594 16.70898438 30.21142578 C17.51468635 28.83131071 18.28531499 27.42937002 19 26 C11.2332741 31.69230627 4.1954052 37.5461913 -2.51171875 44.4765625 C-4.64155159 46.63648717 -6.80523148 48.61334539 -9.125 50.5625 C-13.16993983 53.98322072 -16.52012399 57.91065122 -19.921875 61.9609375 C-22.05603101 64.05497779 -23.04427038 64.81262246 -26 65 C-28.8125 63.5625 -28.8125 63.5625 -31 61 C-31.14829143 53.01079911 -27.09666696 47.05471492 -23.1875 40.3125 C-22.50826588 39.11964572 -21.83021861 37.9261149 -21.15332031 36.73193359 C-19.44358386 33.7222863 -17.71893582 30.7214841 -15.99041748 27.72259521 C-14.46361849 25.06709218 -12.95278898 22.40258048 -11.44140625 19.73828125 C-6.55525338 11.13676031 -6.55525338 11.13676031 -4.11889648 6.94458008 C-3.17162124 5.2982682 -2.26301216 3.62980065 -1.36328125 1.95703125 C-0.91339844 1.31121094 -0.46351562 0.66539062 0 0 Z M102.05859375 51.8984375 C101.31029297 52.29546875 100.56199219 52.6925 99.79101562 53.1015625 C99.01435547 53.52179687 98.23769531 53.94203125 97.4375 54.375 C96.65697266 54.7875 95.87644531 55.2 95.07226562 55.625 C90.7422729 57.90113394 90.7422729 57.90113394 87 61 C87.32041397 63.60280568 87.32041397 63.60280568 88 66 C90.25264045 66.83272822 90.25264045 66.83272822 93 67 C99.40317666 63.30816846 106.61030913 57.16907261 109 50 C105.83693663 50 104.7774463 50.44979237 102.05859375 51.8984375 Z " fill="#E4E4E4" transform="translate(32,2)"/>
</svg>
